<?xml version="1.0" standalone="yes"?>

<svg version="1.1" viewBox="0.0 0.0 954.8661417322835 299.03674540682414" fill="none" stroke="none" stroke-linecap="square" stroke-miterlimit="10" xmlns="http://www.w3.org/2000/svg" xmlns:xlink="http://www.w3.org/1999/xlink"><clipPath id="p.0"><path d="m0 0l954.86615 0l0 299.03674l-954.86615 0l0 -299.03674z" clip-rule="nonzero"></path></clipPath><g clip-path="url(#p.0)"><path fill="#000000" fill-opacity="0.0" d="m0 0l954.86615 0l0 299.03674l-954.86615 0z" fill-rule="evenodd"></path><path fill="#000000" fill-opacity="0.0" d="m-2.566929 -26.485565l960.0 0l0 376.0315l-960.0 0z" fill-rule="evenodd"></path><path fill="#000000" d="m185.22678 101.108185q0 -19.390625 9.796875 -27.984375q9.8125 -8.609375 31.8125 -8.609375q15.390625 0 24.796875 8.0q9.40625 8.0 13.59375 24.40625l-18.59375 14.0l-9.796875 0l21.59375 -16.203125q-4.203125 -13.40625 -12.109375 -18.796875q-7.890625 -5.40625 -19.484375 -5.40625q-8.0 0 -13.5 1.0q-5.5 1.0 -11.0 3.90625q-5.5 2.890625 -8.3125 9.296875q-2.796875 6.390625 -2.796875 16.390625q0 8.8125 8.09375 15.609375q8.109375 6.796875 19.703125 11.59375q11.609375 4.796875 23.3125 9.796875q11.703125 5.0 19.796875 12.8125q8.09375 7.796875 8.09375 18.0q0 20.0 -9.90625 29.796875q-9.890625 9.796875 -33.890625 9.796875q-19.59375 0 -30.796875 -7.890625q-11.203125 -7.90625 -15.40625 -24.515625l5.609375 -2.390625q4.0 16.203125 13.6875 22.5q9.703125 6.296875 26.90625 6.296875q19.203125 0 28.5 -7.390625q9.296875 -7.40625 9.296875 -26.203125q0 -8.8125 -8.09375 -15.609375q-8.09375 -6.796875 -19.796875 -11.59375q-11.703125 -4.796875 -23.3125 -9.796875q-11.59375 -5.0 -19.703125 -12.796875q-8.09375 -7.8125 -8.09375 -18.015625z" fill-rule="nonzero"></path><path fill="#000000" d="m331.7393 128.96756l-29.0 77.546875l-18.5625 0l38.484375 -101.765625l-15.4375 -41.40625l18.5625 0l53.515625 143.17188l-18.5625 0l-29.0 -77.546875z" fill-rule="nonzero"></path><path fill="#000000" d="m418.83304 200.51443l78.796875 0l0 -119.796875l-45.0 96.390625l-45.0 -96.59375l0 126.0l-6.0 -0.203125l0 -140.0l6.0 0l45.0 96.609375l45.0 -96.40625l6.0 -0.203125l0 140.20312l-84.796875 -0.203125l0 -5.796875zm208.19376 -110.0l-50.0 118.0l-50.0 -118.0l6.40625 0l43.59375 102.59375l43.609375 -102.59375l6.390625 0zm22.606262 0l6.0 0l0 116.0l-6.0 0l0 -116.0zm59.203186 116.0l-15.203125 0l0 -116.0l15.203125 0q29.59375 0 47.1875 15.609375q17.609375 15.59375 17.609375 42.390625q0 26.796875 -17.609375 42.40625q-17.59375 15.59375 -47.1875 15.59375zm0 -6.0q27.0 0 42.890625 -13.796875q15.90625 -13.796875 15.90625 -38.203125q0 -24.40625 -15.90625 -38.203125q-15.890625 -13.796875 -42.890625 -13.796875l-9.203125 0l0 104.0l9.203125 0z" fill-rule="nonzero"></path></g></svg>

