<?xml version="1.0" standalone="yes"?>

<svg version="1.1" viewBox="0.0 0.0 960.0 720.0" fill="none" stroke="none" stroke-linecap="square" stroke-miterlimit="10" xmlns="http://www.w3.org/2000/svg" xmlns:xlink="http://www.w3.org/1999/xlink"><clipPath id="p.0"><path d="m0 0l960.0 0l0 720.0l-960.0 0l0 -720.0z" clip-rule="nonzero"></path></clipPath><g clip-path="url(#p.0)"><path fill="#000000" fill-opacity="0.0" d="m0 0l960.0 0l0 720.0l-960.0 0z" fill-rule="evenodd"></path><path fill="#000000" fill-opacity="0.0" d="m0 0l960.0 0l0 376.0315l-960.0 0z" fill-rule="evenodd"></path><path fill="#000000" d="m50.28125 156.46875q0 -25.859375 13.0625 -37.328125q13.078125 -11.46875 42.40625 -11.46875q20.53125 0 33.0625 10.671875q12.53125 10.65625 18.140625 32.53125l-24.8125 18.65625l-13.0625 0l28.796875 -21.59375q-5.59375 -17.859375 -16.125 -25.0625q-10.53125 -7.203125 -26.0 -7.203125q-10.671875 0 -18.0 1.34375q-7.328125 1.328125 -14.671875 5.203125q-7.328125 3.859375 -11.0625 12.390625q-3.734375 8.53125 -3.734375 21.859375q0 11.734375 10.796875 20.8125q10.796875 9.0625 26.265625 15.46875q15.46875 6.390625 31.0625 13.0625q15.609375 6.65625 26.40625 17.0625q10.796875 10.390625 10.796875 24.0q0 26.65625 -13.203125 39.734375q-13.1875 13.0625 -45.1875 13.0625q-26.140625 0 -41.078125 -10.53125q-14.921875 -10.546875 -20.53125 -32.671875l7.46875 -3.203125q5.34375 21.609375 18.265625 30.015625q12.9375 8.390625 35.875 8.390625q25.59375 0 37.984375 -9.859375q12.40625 -9.875 12.40625 -34.9375q0 -11.734375 -10.796875 -20.796875q-10.796875 -9.078125 -26.40625 -15.46875q-15.59375 -6.40625 -31.0625 -13.0625q-15.46875 -6.671875 -26.265625 -17.0625q-10.796875 -10.40625 -10.796875 -24.015625z" fill-rule="nonzero"></path><path fill="#000000" d="m245.60973 193.625l-38.671875 103.375l-24.734375 0l51.296875 -135.67188l-20.5625 -55.203125l24.734375 0l71.343765 190.875l-24.734375 0l-38.67189 -103.375z" fill-rule="nonzero"></path><path fill="#000000" d="m361.73474 289.0l105.0625 0l0 -159.73438l-60.0 128.53125l-59.984375 -128.79688l0 168.0l-8.0 -0.265625l0 -186.65625l8.0 0l59.984375 128.79688l60.0 -128.53125l8.0 -0.265625l0 186.92188l-113.0625 -0.265625l0 -7.734375zm152.79254 -146.65625l58.140625 136.79688l40.265625 -94.671875l40.0 94.671875l54.65625 -128.79688l-171.98438 0l0 -8.0l183.98438 0l-66.65625 157.32812l-40.0 -94.671875l-40.265625 94.671875l-66.671875 -157.32812l8.53125 0zm235.19122 0l8.0 0l0 154.65625l-8.0 0l0 -154.65625zm78.92999 154.65625l-20.265625 0l0 -154.65625l20.265625 0q39.46875 0 62.9375 20.796875q23.46875 20.796875 23.46875 56.53125q0 35.734375 -23.46875 56.53125q-23.46875 20.796875 -62.9375 20.796875zm0 -8.0q36.0 0 57.203125 -18.390625q21.203125 -18.40625 21.203125 -50.9375q0 -32.53125 -21.203125 -50.921875q-21.203125 -18.40625 -57.203125 -18.40625l-12.265625 0l0 138.65625l12.265625 0z" fill-rule="nonzero"></path></g></svg>

